<?xml version="1.0" standalone="no"?>
<!DOCTYPE svg PUBLIC "-//W3C//DTD SVG 20010904//EN"
 "http://www.w3.org/TR/2001/REC-SVG-20010904/DTD/svg10.dtd">
<svg version="1.0" xmlns="http://www.w3.org/2000/svg"
 width="1200.000000pt" height="1202.000000pt" viewBox="0 0 1200.000000 1202.000000"
 preserveAspectRatio="xMidYMid meet">

<g transform="translate(0.000000,1202.000000) scale(0.100000,-0.100000)"
fill="#e53935" stroke="none">
<path d="M5615 12013 c-142 -8 -275 -26 -275 -37 0 -25 200 -3385 204 -3435 3
-30 1 -50 -3 -45 -5 5 -273 747 -597 1649 -323 902 -588 1641 -589 1643 -4 5
-372 -118 -503 -168 -275 -104 -748 -330 -739 -353 3 -7 310 -640 682 -1407
947 -1952 852 -1751 812 -1710 -19 19 -551 603 -1182 1298 -631 695 -1153
1262 -1160 1260 -31 -7 -287 -239 -501 -452 -198 -198 -464 -494 -464 -516 0
-4 584 -535 1299 -1181 714 -646 1298 -1175 1296 -1177 -1 -1 -706 340 -1566
758 -860 419 -1570 764 -1576 767 -19 8 -224 -415 -321 -659 -76 -191 -187
-511 -194 -559 -3 -20 113 -62 1656 -613 1086 -387 1649 -592 1630 -594 -16
-1 -806 38 -1756 88 -950 49 -1729 90 -1731 90 -3 0 -11 -73 -18 -162 -19
-219 -19 -857 0 -1035 l13 -133 5964 0 5963 0 6 33 c28 170 42 689 26 967 -14
228 -26 348 -35 358 -4 3 -783 -33 -1732 -82 -949 -48 -1727 -86 -1729 -84 -2
2 737 255 1641 563 1331 453 1644 563 1644 577 0 30 -119 385 -186 555 -110
279 -328 727 -359 739 -6 3 -717 -353 -1580 -791 -862 -437 -1569 -794 -1571
-793 -1 2 589 536 1312 1187 1076 969 1312 1186 1304 1200 -18 32 -204 249
-338 394 -170 184 -561 547 -589 547 -6 0 -513 -564 -1129 -1252 -615 -689
-1134 -1269 -1152 -1288 l-32 -35 44 95 c24 52 357 754 740 1559 383 806 695
1470 692 1476 -10 27 -453 242 -698 339 -169 67 -470 170 -530 181 l-33 6
-569 -1578 c-313 -868 -578 -1596 -588 -1618 l-18 -40 5 60 c16 199 196 3367
192 3371 -28 29 -796 55 -1082 37z"/>
<path d="M7017 4953 c-6 -10 -87 -269 -87 -277 0 -3 36 -6 80 -6 44 0 80 -3
80 -7 0 -5 -25 -75 -54 -158 l-54 -150 -73 -5 -73 -5 -48 -135 c-26 -74 -48
-136 -48 -137 0 -2 41 -3 91 -3 69 0 90 -3 87 -12 -3 -7 -40 -125 -83 -263
-42 -137 -80 -253 -84 -258 -4 -4 -224 -6 -488 -5 l-481 3 114 395 c63 217
114 399 114 403 0 4 -172 7 -382 5 l-383 -3 -56 -26 c-68 -32 -131 -88 -165
-144 -13 -23 -66 -165 -118 -316 -52 -151 -97 -282 -101 -291 -6 -16 -21 -18
-106 -18 -54 0 -99 2 -99 6 0 3 33 109 74 237 111 349 111 348 96 404 -15 61
-50 108 -100 133 -38 19 -56 20 -377 18 l-336 -3 -132 -395 -132 -395 -121 -3
c-67 -1 -122 -1 -122 0 0 2 61 178 135 393 74 214 135 393 135 397 0 5 -153 8
-340 8 -330 0 -341 -1 -403 -23 -36 -13 -87 -40 -115 -60 -82 -61 -113 -118
-202 -377 -45 -129 -91 -261 -102 -292 l-20 -58 -187 0 -188 0 -136 315 -135
315 149 0 c167 0 274 17 351 56 109 55 151 120 211 329 51 177 60 222 52 261
-7 42 -67 112 -112 131 -26 10 -158 13 -672 13 l-640 0 -26 -87 c-15 -49 -35
-114 -45 -145 l-18 -58 60 0 60 0 -7 -27 c-5 -23 -218 -759 -296 -1025 l-20
-68 -68 0 -69 0 -31 -125 c-17 -68 -31 -127 -31 -130 0 -3 116 -4 257 -3 l257
3 33 105 c18 58 36 113 39 123 5 14 -1 17 -40 17 -25 0 -47 3 -49 8 -2 4 29
113 69 242 40 129 82 268 94 308 l22 72 68 0 68 0 234 -447 235 -448 965 -3
965 -2 88 317 c49 175 100 361 115 413 l27 95 120 0 c173 0 175 -3 119 -188
-39 -129 -166 -600 -166 -616 0 -8 161 -11 553 -11 305 0 556 -2 559 -5 3 -3
-6 -51 -20 -105 l-24 -100 -2269 -2 -2269 -3 80 -123 79 -122 2317 2 2317 3
61 230 61 230 1902 3 1902 2 14 48 c8 26 58 199 112 385 l98 337 118 0 c125 0
149 -8 149 -52 0 -15 -150 -619 -176 -710 -5 -17 25 -18 530 -18 295 0 536 -2
536 -4 0 -3 -16 -50 -36 -105 l-36 -101 -2102 0 -2101 0 -33 -124 c-17 -68
-32 -126 -32 -130 0 -3 1031 -5 2292 -4 l2292 3 213 755 c117 415 212 761 213
768 0 10 -72 12 -367 10 l-368 -3 -65 -31 c-78 -37 -149 -105 -184 -177 -20
-41 -98 -300 -164 -542 l-8 -30 -122 -3 c-67 -1 -122 1 -122 6 0 4 26 96 59
203 83 273 94 325 89 408 -4 75 -19 106 -72 145 -26 20 -42 21 -367 24 -186 1
-339 1 -339 -1 0 -5 -243 -702 -267 -764 l-16 -43 -123 0 c-68 0 -124 2 -124
3 0 2 36 107 81 233 134 379 135 383 100 459 -24 52 -56 80 -106 94 -53 14
-429 14 -497 0 -76 -16 -119 -41 -170 -98 -44 -48 -50 -64 -152 -376 l-107
-325 -124 0 c-69 0 -125 3 -125 7 0 4 82 253 181 552 131 393 183 562 187 608
7 88 -12 148 -64 200 -73 73 -75 73 -665 73 -285 0 -520 -3 -522 -7z m847
-297 c42 -17 61 -61 52 -119 -4 -23 -56 -213 -115 -422 -60 -209 -112 -400
-116 -425 -9 -55 -38 -108 -73 -135 -26 -19 -41 -20 -280 -18 -140 1 -256 3
-258 5 -2 3 29 119 70 259 l73 254 55 3 55 3 38 137 c21 75 40 143 42 150 4 8
-7 12 -36 12 -23 0 -41 4 -41 8 0 6 78 244 95 290 7 18 393 17 439 -2z m-5614
-16 c25 -25 25 -53 1 -105 -20 -44 -68 -91 -115 -110 -21 -9 -108 -11 -335 -7
-168 2 -307 6 -309 7 -1 1 14 44 34 96 20 52 40 104 45 117 l9 22 325 0 c312
0 326 -1 345 -20z m1067 -552 c-2 -7 -30 -103 -61 -213 -32 -110 -66 -230 -77
-267 l-20 -68 -144 0 c-80 0 -145 2 -145 5 0 3 27 96 59 207 32 112 62 215 65
231 9 39 55 86 101 102 52 19 229 21 222 3z m2298 -35 c-8 -27 -45 -151 -83
-278 l-69 -230 -176 -3 -176 -2 33 122 c18 68 44 161 56 208 53 198 94 229
302 230 l127 0 -14 -47z m3259 -12 c16 -17 16 -26 7 -70 -9 -43 -101 -300
-144 -402 l-14 -35 -144 4 c-79 2 -145 5 -146 6 -4 3 55 213 89 316 58 179 82
200 234 200 87 0 103 -3 118 -19z m2180 -235 l-85 -253 -91 -7 c-159 -11 -198
-9 -198 12 0 19 82 331 98 373 16 42 64 91 107 110 31 14 65 19 147 19 l106 0
-84 -254z"/>
<path d="M8766 4564 c-21 -31 -35 -58 -33 -61 3 -2 93 -1 200 3 l195 7 -26 53
-26 54 -137 0 -136 0 -37 -56z"/>
<path d="M2766 3178 c-16 -61 -26 -58 214 -58 l220 0 0 40 0 40 -214 0 c-213
0 -214 0 -220 -22z"/>
<path d="M1230 2381 c0 -5 41 -60 91 -123 554 -686 1210 -1217 1984 -1608 724
-365 1485 -574 2299 -631 221 -15 789 -6 991 16 770 83 1442 278 2106 611 770
385 1453 938 1988 1608 56 70 101 129 101 131 0 3 -2151 5 -4780 5 -2915 0
-4780 -4 -4780 -9z"/>
</g>
</svg>
